<svg xmlns="http://www.w3.org/2000/svg" id="Name" viewBox="0 0 1280 640">
    <defs>
        <style>
            .name-outline {
                fill: none;
                stroke: #fff;
                stroke-linejoin: round;
                stroke-linecap: round;
                stroke-width: 4px;
            }

            .name-blank {
                fill: transparent;
                stroke: transparent;
                stroke-linejoin: round;
                stroke-linecap: round;
                stroke-width: 8px;
            }
        </style>
    </defs>

    <!-- Backgrounds -->
    <rect id="name-bg-0" y="0" width="1280" height="640" fill="#252e40" />
    <polygon id="sky_left" points="0 0 0 640 565.821 640 723.347 0 0 0" fill="#8fcaee" stroke="#8fcaee" />
    <polygon id="sky_right" points="723.347 0 565.821 640 1280 640 1280 0 723.347 0" fill="#74a2d6" stroke="#74a2d6" />
    <rect id="name-bg-1" y="0" width="1280" height="640" fill="#252e40" />

    <!-- NAME: Alwin -->
    <polygon id="A-outside" class="name-outline"
        points="376.844 343.399 361.003 389.721 330.763 389.721 392.924 218.837 431.565 218.837 493.727 389.721 463.486 389.721 447.646 343.399 376.844 343.399"
        pathLength="1" stroke-dasharray="1" stroke-dashoffset="1" />
    <path id="A-inside" class="name-outline"
        d="M434.4453,304.999c-7.68-22.8-15.1206-45.1206-22.0806-67.9214h-.48c-6.96,22.8008-13.92,45.1211-21.8409,67.9214l-4.56,13.4409h53.5215Z"
        transform="translate(0 2.5)" pathLength="1" stroke-dasharray="1" stroke-dashoffset="1" />
    <rect id="l" class="name-outline" x="512.2021" y="218.8374" width="27.3603" height="170.8833" pathLength="1"
        stroke-dasharray="1" stroke-dashoffset="1" />
    <path id="w" class="name-outline"
        d="M676.36,389.72l-12.48-50.4c-4.32-17.28-8.16-34.8-11.76-52.56h-.48c-3.6,17.76-7.44,35.28-11.76,52.56l-12.48,50.4H588.28L558.52,267.8h27.36l11,49c4.08,17.76,7.92,36.24,11,54h.48c3.6-17.76,7.68-35.28,12-53l12.24-49.92h38.4l12.24,49.92c4.32,17.76,8.4,35.28,12,53h.48c3.12-17.76,7-36.24,11-54l11-49h27.37L715.48,389.72Z"
        transform="translate(0 2.5)" pathLength="1" stroke-dasharray="1" stroke-dashoffset="1" />
    <rect id="i-upper" class="name-outline" x="764.1992" y="221.3374" width="27.3604" height="26.1606" pathLength="1"
        stroke-dasharray="1" stroke-dashoffset="1" />
    <rect id="i-lower" class="name-outline" x="764.1992" y="270.2983" width="27.3604" height="121.9224" pathLength="1"
        stroke-dasharray="1" stroke-dashoffset="1" />
    <path id="n" class="name-outline"
        d="M933.88,315.08v74.64H906.52V317.48c0-21.84-9.36-30.48-24.72-30.48C866.2,287,854,298.76,854,322v67.68H826.6V267.8h25.92v15.84H853a43.52,43.52,0,0,1,36.48-18.72C917.08,264.92,933.88,281.72,933.88,315.08Z"
        transform="translate(0 2.5)" pathLength="1" stroke-dasharray="1" stroke-dashoffset="1" />

    <!-- INITIAL: Flash Alwin for image preview and browsers that don't support animation -->
    <animate href="#A-full" attributeName="fill" values="transparent" dur="1s" fill="freeze" begin="0" />
    <animate href="#l" attributeName="fill" values="transparent" dur="1s" fill="freeze" begin="0" />
    <animate href="#w" attributeName="fill" values="transparent" dur="1s" fill="freeze" begin="0" />
    <animate href="#i-lower" attributeName="fill" values="transparent" dur="1s" fill="freeze" begin="0" />
    <animate href="#i-upper" attributeName="fill" values="transparent" dur="1s" fill="freeze" begin="0" />
    <animate href="#n" attributeName="fill" values="transparent" dur="0.5s" fill="freeze" begin="0" />

    <!-- Outline Name from A to n -->
    <!-- Consider using key frames to show then hide -->
    <animate href="#name-bg-1" dur="0.1s" begin="0;graphics.click" fill="freeze" id="name" />
    <animate href="#A-outside" attributeName="stroke-dashoffset" from="1" to="0" dur="1s" fill="freeze"
        begin="name.begin" />
    <animate href="#A-inside" attributeName="stroke-dashoffset" from="1" to="0" dur="1s" fill="freeze"
        begin="name.begin" />
    <animate href="#l" attributeName="stroke-dashoffset" from="1" to="0" dur="0.75s" fill="freeze"
        begin="name.begin+0.25s" />
    <animate href="#w" attributeName="stroke-dashoffset" from="1" to="0" dur="1.25s" fill="freeze"
        begin="name.begin+0.3s" />
    <animate href="#i-lower" attributeName="stroke-dashoffset" from="1" to="0" dur="1s" fill="freeze"
        begin="name.begin+0.5s" />
    <animate href="#i-upper" attributeName="stroke-dashoffset" from="1" to="0" dur="0.5s" fill="freeze"
        begin="name.begin+1.25s" id="name_outline" />
    <animate href="#n" attributeName="stroke-dashoffset" from="1" to="0" dur="1s" fill="freeze"
        begin="name.begin+0.75s" />

    <!-- Fill Letters -->
    <path id="Alw" class="name-blank"
        d="M392.9243,218.8374,330.7627,389.7207h30.2407l15.84-46.3213h70.8017l15.84,46.3213h30.2408L431.5649,218.8374ZM439.0054,318.44H385.4839l4.56-13.4409c7.9205-22.8,14.88-45.1206,21.8409-67.9214h.48c6.96,22.8008,14.4,45.1211,22.0806,67.9214Zm73.1967,71.2808h27.36V218.8374h-27.36Zm120.48-121.9224-12.24,49.9209c-4.32,17.76-8.4,35.2808-12,53.0415h-.48c-3.12-17.7607-6.96-36.2412-11.0405-54.0014l-11.04-48.961H558.5205l29.7608,121.9224h39.121l3.4561-13.9576,9.0239-36.4438q1.67-6.68,3.2468-13.41c3.035-12.9184,5.8416-25.9676,8.5135-39.1506h.48c.0961.474.1971.9437.2935,1.4174l5.0158-20.3779Z" />
    <path id="win" class="name-blank"
        d="M764.1992,244.998V218.8374h27.36V244.998Zm0,144.7227V267.7983h27.36V389.7207ZM933.8809,315.08v74.6411h-27.36V317.48c0-21.8408-9.36-30.481-24.7207-30.481-15.6006,0-27.8408,11.76-27.8408,35.04v67.6816h-27.36V267.7983h25.92v15.84h.48a43.5231,43.5231,0,0,1,36.4805-18.72C917.08,264.9185,933.8809,281.7188,933.8809,315.08ZM717.8848,267.7983l-11.041,48.961c-4.08,17.76-7.92,36.2407-11.04,54.0014h-.48c-3.6006-17.7607-7.6806-35.2812-12.001-53.0415l-12.24-49.9209H657.4323l-5.0158,20.3779c3.5162,17.2737,7.2623,34.3242,11.4663,51.1431l12.4805,50.4014h39.1211l29.7607-121.9224Z" />

    <animate href="#Alw" attributeName="fill" values="transparent;#fff" dur="0.25s" fill="freeze"
        begin="name_outline.end+0.1s;graphics.click;click" />
    <animate href="#Alw" attributeName="stroke" values="transparent;#fff" dur="0.25s" fill="freeze"
        begin="name_outline.end+0.1s" />
    <animate href="#win" attributeName="fill" values="transparent;#fff" dur="0.25s" fill="freeze"
        begin="name_outline.end+0.1s" />
    <animate href="#win" attributeName="stroke" values="transparent;#fff" dur="0.25s" fill="freeze"
        begin="name_outline.end+0.1s" id="name_fill" />

    <animate href="#A-outside" attributeName="stroke-dashoffset" from="0" to="1" dur="1s" fill="freeze"
        begin="name_outline.end" calcMode="discrete" />
    <animate href="#A-inside" attributeName="stroke-dashoffset" from="0" to="1" dur="1s" fill="freeze"
        begin="name_outline.end" calcMode="discrete" />
    <animate href="#l" attributeName="stroke-dashoffset" from="0" to="1" dur="1s" fill="freeze" begin="name_outline.end"
        calcMode="discrete" />
    <animate href="#w" attributeName="stroke-dashoffset" from="0" to="1" dur="1s" fill="freeze" begin="name_outline.end"
        calcMode="discrete" />
    <animate href="#i-lower" attributeName="stroke-dashoffset" from="0" to="1" dur="1s" fill="freeze"
        begin="name_outline.end" calcMode="discrete" />
    <animate href="#i-upper" attributeName="stroke-dashoffset" from="0" to="1" dur="1s" fill="freeze"
        begin="name_outline.end" calcMode="discrete" />
    <animate href="#n" attributeName="stroke-dashoffset" from="0" to="1" dur="1s" fill="freeze" begin="name_outline.end"
        calcMode="discrete" />

    <!-- Sky Background -->
    <line id="name-line" x1="-78.77" y1="322.5" x2="78.77" y2="-322.5" transform="translate(644.58 320)" stroke="#fff"
        stroke-width="0px" />

    <animate href="#name-line" attributeName="stroke-width" from="0px" to="8px" begin="name_fill.end+1.5s" dur="0.5s"
        fill="freeze" id="diagonal_line" />
    <animateMotion href="#sky_left" dur="0.1s" begin="diagonal_line.end" fill="freeze" path="M0,0,-157.5259,640" />
    <animateMotion href="#sky_right" dur="0.1s" begin="diagonal_line.end" fill="freeze" path="M0,0,157.5259,-640" />
    <animate href="#name-bg-1" attributeName="opacity" from="1" to="0" dur="0.1s" begin="diagonal_line.end+0.2s"
        fill="freeze" />

    <animateMotion href="#sky_left" dur="1s" begin="diagonal_line.end+0.5s" fill="freeze" path="M-157.5259,640,0,0" />
    <animateMotion href="#Alw" dur="1s" begin="diagonal_line.end+0.9s" fill="freeze" path="M0,0,157.5259,-640" />
    <animateMotion href="#A-inside" dur="1s" begin="diagonal_line.end+0.9s" fill="freeze" path="M0,0,157.5259,-640" />
    <animateMotion href="#win" dur="1s" begin="diagonal_line.end+0.83s" fill="freeze" path="M0,0,-157.5259,640" />
    <animateMotion href="#w" dur="1s" begin="diagonal_line.end+0.83s" fill="freeze" path="M0,0,-157.5259,640" />
    <animateMotion href="#sky_right" dur="1s" begin="diagonal_line.end+0.5s" fill="freeze" path="M157.5259,-640,0,0"
        id="sky" />
    <animate href="#sky_right" attributeName="stroke-width" from="0px" to="2px" dur="0.25s" fill="freeze" begin="sky" />
    <animate href="#name-line" attributeName="stroke-width" from="8px" to="0px" begin="sky.end" dur="0.5s"
        fill="freeze" />

    <g id="UAS-mainframe">
        <path
            d="M582.9173,327.6435c-.01-.0523-.0246-.1021-.0354-.1542-1.145-5.5452-4.3612-9.68-7.5862-10.0416a38.3455,38.3455,0,0,0-1.9349,9.28,9.347,9.347,0,0,0,.2,3.06,35.3288,35.3288,0,0,0,5.299,10.551C582.3311,339.4183,584.1455,333.8312,582.9173,327.6435Z"
            fill="#0c0d11" stroke="#0c0d11" stroke-linecap="round" stroke-linejoin="round" stroke-width="0.2" />
        <ellipse cx="579.6003" cy="327.9677" rx="4.9708" ry="8.6732"
            transform="translate(-52.7609 119.117) rotate(-11.2265)" fill="#782676" />
        <path
            d="M585.1489,556.246l49.9155-14.5167c-20.6592,3.1175-36.1648,3.4033-43.5868,1.2248-8.6422-2.5366-33.2084-10.3369-33.2084-10.3369l-9.4382,3.7452s31.2671,19.5193,32.4281,20.25c.3174.2.6381.4082.9876.5985C583.8035,557.9749,585.0076,557.8413,585.1489,556.246Z"
            fill="#304a80" />
        <path
            d="M693.7928,326.9359c-11.7984,4.2375-23.036,8.0431-32.5472,10.9089-28.5439,8.6-43.7853,11.7575-52.6574,12.4855l-16.4661,90.7188-.5034,8.3167,25.764-7.5474-15.9186,106.38c4.5981-1.0792,8.7253-2.1007,13.1653-3.4176,9.9875-2.9625,15.7794-4.9454,18.5953-6.3086,2.4978-1.2092,3.2959-1.6264,3.8453-2.6422l40.3507-118.6928Z"
            fill="#e0e0da" stroke="#e0e0da" stroke-linecap="round" stroke-linejoin="round" stroke-width="0.2" />
        <path d="M617.3827,441.8184l-25.764,7.5474-6.2113,102.6111c6.3544-1.5537,11.4488-2.6974,16.0567-3.7788Z"
            fill="#252e44" />
        <path
            d="M585.1489,556.246c-.1413,1.5953-1.3454,1.7289-2.9022.9645a5.5946,5.5946,0,0,0,4.0687.4877c2.734-.5244,22.6614-5.203,25.6615-6.0549,3.1823-.9036,19.9847-5.8433,23.0875-9.914-1.4108,1.5938-19.0918,7.23-33.1873,10.5757C597.6968,553.2972,585.1489,556.246,585.1489,556.246Z"
            fill="#3b3a66" />
        <path
            d="M633.2247,538.4719c-2.8159,1.3632-8.6078,3.3461-18.5953,6.3086-4.44,1.3169-8.5672,2.3384-13.1653,3.4176-4.6079,1.0814-9.7023,2.2251-16.0567,3.7788l-.2585,4.2691s12.5479-2.9488,16.7282-3.941c14.0955-3.3459,31.7765-8.9819,33.1873-10.5757l2.0056-5.9C636.5206,536.8455,635.7225,537.2627,633.2247,538.4719Z"
            fill="#282a42" />
        <path
            d="M789.7044,259.3843C767.1524,266.4087,701,287.2283,701,287.2283c-.3875,2.4686-2.4952,4.1261-5.7,5.5764l.0036,0s84.5132-27.2031,95.3-30.424a145.2443,145.2443,0,0,1,21.0032-4.3376c1.62-.8933,3.1447-1.8062,4.5313-2.7547A117.9351,117.9351,0,0,0,789.7044,259.3843Z"
            fill="#24345b" stroke="#24345b" stroke-linecap="round" stroke-linejoin="round" stroke-width="0.2" />
        <path
            d="M695.3036,292.8046l-.0036,0c-3.2722,1.4807-7.6885,2.7454-12.6029,4.4331-8.4041,2.8863-27.9728,9.1892-37.8721,12.45a216.1084,216.1084,0,0,0-33.8934,13.5738c1.7739-.5176,3.5812-1.0779,5.44-1.7049,27.01-9.1119,115.6-36.0184,136.2543-42.5717,25.6352-8.1334,45.9869-13.7772,58.9807-20.9418a145.2443,145.2443,0,0,0-21.0032,4.3376C779.8168,265.6015,695.3036,292.8046,695.3036,292.8046Z"
            fill="#1c243b" stroke="#1c243b" stroke-linecap="round" stroke-linejoin="round" stroke-width="0.2" />
        <path
            d="M816.6818,254.91c-12.4031,8.7588-34.8017,14.793-64.056,24.0746-20.6548,6.5533-109.2445,33.46-136.2543,42.5717-13.199,4.4527-24.2112,6.0517-33.49,5.9328.0108.0521.025.1019.0354.1542,1.2282,6.1877-.5862,11.7748-4.0573,12.6949a28,28,0,0,0,1.8311,2.2168c4.1074,4.432,12.884,6.5418,19.6255,7.64a34.1915,34.1915,0,0,0,8.2716.1347c8.8721-.728,24.1135-3.885,52.6574-12.4855,9.5112-2.8658,20.7488-6.6714,32.5472-10.9089,38.3489-13.7736,82.694-32.1678,93.5395-38.1634,14.1823-7.84,24.4195-15.6554,28.1647-23.3457C817.6839,260.9365,817.5739,257.4764,816.6818,254.91Z"
            fill="#24293c" stroke="#24293c" stroke-linecap="round" stroke-linejoin="round" stroke-width="0.2" />
        <path
            d="M582.8819,327.4893c9.2784.1189,20.2906-1.48,33.49-5.9328,27.01-9.1119,115.6-36.0184,136.2543-42.5717,29.2543-9.2816,51.6529-15.3158,64.056-24.0746a11.8333,11.8333,0,0,0-2.5581-4.165c-1.6978-1.8228-7.2725-5.589-18.1522-7.241-8.14-1.236-14.02-1.3108-33.533,1.7228-12.4754,1.94-33.84,6.735-56.12,12.7009l-5.3188,29.3037c-.7861,4.9861-8.5764,6.6661-18.3022,10.0062-8.4041,2.8863-27.9728,9.1892-37.8721,12.45a217.21,217.21,0,0,0-31.0715,12.1847l6.7025-36.9263c-7.6742,2.7537-14.1017,5.1977-17.1931,6.673-8.3925,4.0049-19.176,9.7378-23.2209,15.83a41.9328,41.9328,0,0,0-4.7463,9.9986C578.5207,317.8093,581.7369,321.9441,582.8819,327.4893Z"
            fill="#2b3e64" stroke="#2b3e64" stroke-linecap="round" stroke-linejoin="round" stroke-width="0.2" />
        <ellipse cx="576.3493" cy="328.9472" rx="4.9708" ry="8.6732"
            transform="translate(-53.0138 118.5028) rotate(-11.2265)" fill="#141724" />
        <ellipse cx="575.2157" cy="329.2888" rx="4.9708" ry="8.6732"
            transform="translate(-53.102 118.2886) rotate(-11.2265)" fill="#181b2b" />
        <path
            d="M568.2584,332.3389l6.931-2.0012c.3015-.0563.4664-.5283.3683-1.0544s-.4221-.9071-.7236-.8508l-6.931,2.0012"
            fill="#9e9093" />
        <path
            d="M723.2811,80.5514c-2.8158,1.3632-8.6077,3.3462-18.5952,6.3085-4.4134,1.3091-8.5166,2.3262-13.0815,3.3982L661.0405,210.2708,634.5222,217.46l-3.9435,11.7156-10.1227,55.77-6.7025,36.9263a217.21,217.21,0,0,1,31.0715-12.1847c9.8993-3.2606,29.468-9.5635,37.8721-12.45,9.7258-3.34,17.5161-5.02,18.3022-10.0062l5.3188-29.3037,9.5429-52.5756L727.2416,77.6865C726.6837,78.8743,725.9558,79.2564,723.2811,80.5514Z"
            fill="#e0e0da" stroke="#e0e0da" stroke-linecap="round" stroke-linejoin="round" stroke-width="0.2" />
        <path d="M691.6044,90.2581c-4.4749,1.0509-9.3935,2.1543-15.49,3.6383L634.5222,217.46l26.5183-7.1892Z"
            fill="#21273b" stroke="#21273b" stroke-linecap="round" stroke-linejoin="round" stroke-width="0.2" />
        <path
            d="M704.6859,69.9715c-2.218-1.0182-53.4332-24.3944-53.4332-24.3944l-9.2883,4.794c2.15,1.9963,25.3561,22.0524,33.6711,31.1529,10.6909-3.6267,22.4524-7.101,34.9763-10.4673A16.732,16.732,0,0,1,704.6859,69.9715Z"
            fill="#2d3e67" stroke="#2d3e67" stroke-linecap="round" stroke-linejoin="round" stroke-width="0.2" />
        <path
            d="M705.8917,80.6374c9.9875-2.9623,15.7794-4.9453,18.5953-6.3085a15.6985,15.6985,0,0,0,3.128-1.7473c-.2856-1.4927-3.4453-2.4281-5.9-2.1852-3.5285.1214-7.42.7562-11.1027.66-12.5239,3.3663-24.2854,6.8406-34.9763,10.4673.1293.1416.2661.2886.3881.4247,1.8963,2.1163,2.4737,4.2078,2.223,5.5016,5.6662-1.37,10.3209-2.4183,14.5637-3.4146C697.3751,82.9637,701.4784,81.9465,705.8917,80.6374Z"
            fill="#232f54" stroke="#232f54" stroke-linecap="round" stroke-linejoin="round" stroke-width="0.2" />
        <path
            d="M724.487,74.3289c-2.8159,1.3632-8.6078,3.3462-18.5953,6.3085-4.4133,1.3091-8.5166,2.3263-13.0814,3.3983-4.2428.9963-8.8975,2.0441-14.5637,3.4146a2.619,2.619,0,0,1-.0642.3032l-2.0678,6.1429c6.0963-1.484,11.0149-2.5874,15.49-3.6383,4.5649-1.072,8.6681-2.0891,13.0815-3.3982,9.9875-2.9623,15.7794-4.9453,18.5952-6.3085,2.6747-1.295,3.4026-1.6771,3.96-2.8649l.4225-4.7409a1.1212,1.1212,0,0,0-.0491-.364A15.6985,15.6985,0,0,1,724.487,74.3289Z"
            fill="#2b2d44" stroke="#2b2d44" stroke-linecap="round" stroke-linejoin="round" stroke-width="0.2" />
        <polygon points="432.287 297.793 434.953 305.381 806.883 197.229 802.71 190.064 432.287 297.793"
            fill="#323346" />
        <polygon points="398.304 486.274 400.876 493.904 769.736 388.74 765.558 381.568 398.304 486.274"
            fill="#2f3c4e" />
        <path
            d="M353.4969,444.2251l-4.2449-3.7644c-3.4854-1.391-24.2931,6.6882-33.55,10.3293.6406,1.1,1.5215,2.6115,2.5783,4.4257C326.3982,452.0177,349.7689,442.7508,353.4969,444.2251Z"
            fill="#4e5e8f" stroke="#4e5e8f" stroke-linecap="round" stroke-linejoin="round" stroke-width="0.2" />
        <path d="M330.4892,450.5061c-4.9186,1.831-9.447,3.6216-12.2088,4.71l23.8377,40.92,12.8319-3.6584Z"
            fill="#384f81" stroke="#384f81" stroke-linecap="round" stroke-linejoin="round" stroke-width="0.2" />
        <path
            d="M395.7472,481.8852a9.12,9.12,0,0,0-1.2648-1.2858c-8.38-7.4666-39.183-34.7758-40.9855-36.3743-2.46-.9727-13.4689,2.73-23.0077,6.281L354.95,492.4776l-12.8319,3.6584c1.236,2.1217,2.1845,3.75,2.7109,4.6535,1.9353,3.3223,3.1606,4.9919,4.0924,4.7873l11.7158-3.3406c12.99-3.7038,33.06-9.4263,40.2384-11.4728C400.8756,490.7634,396.1,482.3646,395.7472,481.8852Z"
            fill="#f2f3f0" stroke="#f2f3f0" stroke-linecap="round" stroke-linejoin="round" stroke-width="0.2" />
        <path
            d="M378.8064,496.425c-8.277,2.5842-22.4718,6.704-29.885,9.1518l13.9768-3.9854c13.2132-3.7674,30.3579-8.6557,37.9774-10.828-3.3315.8968-8.0589,1.8939-10.1952-.2474C388.6953,492.8019,384.749,494.57,378.8064,496.425Z"
            fill="#d6d7d1" stroke="#d6d7d1" stroke-linecap="round" stroke-linejoin="round" stroke-width="0.2" />
        <path
            d="M400.9846,493.8594c-32.5664,9.4712-51.5209,12.8825-52.0632,11.7174-.4332-.9309,7.534-7.13,49.39-19.3028.3541.07,1.2878.7895,2.2494,2.87A6.2736,6.2736,0,0,1,400.9846,493.8594Z"
            fill="#e0e0d9" stroke="#e0e0d9" stroke-linecap="round" stroke-linejoin="round" stroke-width="0.2" />
        <path
            d="M387.2281,255.1711l.01,0c-2.6286-2.3239-4.26-3.766-4.26-3.766-3.592-1.4335-26.0724,6.6328-34.9121,10.0314.6825,1.1768,1.5749,2.7158,2.6095,4.5C358.9724,262.7062,383.53,253.6951,387.2281,255.1711Z"
            fill="#46527e" stroke="#46527e" stroke-linecap="round" stroke-linejoin="round" stroke-width="0.2" />
        <path
            d="M362.9938,261.3908c-4.9938,1.7555-9.5574,3.4707-12.318,4.5454,6.1771,10.6506,17.6694,30.3407,24.1394,41.4228L387.65,303.7C381.1305,292.53,369.46,272.53,362.9938,261.3908Z"
            fill="#2e446b" stroke="#2e446b" stroke-linecap="round" stroke-linejoin="round" stroke-width="0.2" />
        <path
            d="M429.1447,292.414a9.1182,9.1182,0,0,0-1.2647-1.2858c-.4846-.4543-29.5355-26.1388-40.6415-35.9569l-.01,0c-2.3935-.9553-13.5228,2.4823-23.3282,5.9024a.7861.7861,0,0,0-.4279,1.1409c6.3778,10.9818,17.228,29.5775,23.6671,40.61a.7887.7887,0,0,1-.4754,1.1565l-10.8621,3.0968a.8019.8019,0,0,0-.4647,1.1749c2.1894,3.75,3.7167,6.3655,4.1175,7.0535.5416.93,1.0571,1.8035,1.5177,2.6561a.7865.7865,0,0,0,.9126.386l12.2175-3.4833,40.2556-11.477a.7908.7908,0,0,0,.4769-1.1537C433.4129,299.75,429.4338,292.8072,429.1447,292.414Z"
            fill="#e5e5e3" stroke="#e5e5e3" stroke-linecap="round" stroke-linejoin="round" stroke-width="0.2" />
        <path
            d="M356.3028,471.1894c-1.3533,7.4732-2.5053,13.8336-3.3709,18.6126l12.8342-3.659c6.4457-35.5715,23.213-128.4246,28.245-156.4961l-12.8453,3.6622C375.773,363.2859,357.29,465.7383,356.3028,471.1894Z"
            fill="#2a3546" stroke="#2a3546" stroke-linecap="round" stroke-linejoin="round" stroke-width="0.2" />
        <path d="M431.6425,304.363q-.8467.322-1.6628.6789C430.698,304.7512,431.2475,304.5275,431.6425,304.363Z"
            fill="none" />
        <path
            d="M431.6425,304.363c.5749-.2321.7612-.402-.9643.074l-36.576,10.4279-12.8335,3.6589a10.1688,10.1688,0,0,1,1.3593,6.6316c-.0457.272-.5782,3.2394-1.4622,8.1537l12.8453-3.6622L365.7661,486.143l-12.8342,3.659c-.9485,5.2371-1.5523,8.5715-1.6835,9.2988-.7553,4.189-1.3925,6.2735-2.327,6.476,7.4132-2.4478,21.608-6.5676,29.885-9.1518,5.9426-1.8554,9.8889-3.6231,11.874-5.909-.964-.9663-1.4018-2.57-.9432-5.1135.4435-2.4595,23.0006-127.5587,30.6283-169.8613.9729-5.3959,4.8514-8.4215,9.6142-10.4993C429.98,305.0419,431.2261,304.531,431.6425,304.363Z"
            fill="#d6d7d1" stroke="#d6d7d1" stroke-linecap="round" stroke-linejoin="round" stroke-width="0.2" />
        <path
            d="M570.2318,418.5369a17.2336,17.2336,0,0,1-4.3945,3.7952c-2.6967,1.598-12.3845,5.7928-18.0774,7.89s-12.2846,4.2947-15.68,5.8927-17.8777,7.4906-17.8777,7.4906L477.448,462.1822s-14.2821,3.0961-18.5768,3.995-17.6778,4.2946-17.6778,4.2946a1.2108,1.2108,0,0,1,0-1.6979c.799-.8988,8.09-3.9949,12.1847-5.7927s16.08-7.3907,21.6729-9.588,11.186-4.5942,16.6791-6.1922,8.9887-1.7978,9.4881-2.6967a6.8218,6.8218,0,0,1,3.4956-3.0961c1.9975-.799,4.6941-1.6979,5.7928-1.4981a11.974,11.974,0,0,0,3.0961.3995c.8989-.1,7.3907-2.397,8.789-2.7965s5.4931-3.196,7.79-4.4944a76.2592,76.2592,0,0,1,14.0824-5.7927c7.69-2.4969,15.2809-4.5943,16.9787-5.1935S570.2318,418.5369,570.2318,418.5369Z"
            fill="#373c51" stroke="#373c51" stroke-linecap="round" stroke-linejoin="round" stroke-width="0.2" />
        <path
            d="M564.0869,442.3052c-2.21-3.2209-31.158-6.4161-57.4486,1.3519-20.9032,6.1762-46.73,25.3151-44.5362,28.4608,3.3084,4.7441,15.2431,2.6368,28.0525,2.9962,4.0248.113,7.9644.8234,12.2746,1.3.4656-3.1382,7.612-7.7249,17.08-10.7582,9.56-3.0631,18.1187-3.4631,20.2178-1.1038,2.0822-2.533,3.9644-4.98,7.4563-6.8912C556.9819,452.2964,565.7721,444.7615,564.0869,442.3052Z"
            fill="#374259" stroke="#374259" stroke-linecap="round" stroke-linejoin="round" stroke-width="0.2" />
        <path
            d="M519.509,465.656c-9.4678,3.0333-16.6142,7.62-17.08,10.7582a52.0437,52.0437,0,0,0,22.2006-1.8725c8.8265-2.6742,12.1618-6.4186,15.097-9.9895C537.6277,462.1929,529.07,462.5929,519.509,465.656Z"
            fill="#717985" stroke="#717985" stroke-linecap="round" stroke-linejoin="round" stroke-width="0.2" />
        <path
            d="M520.8661,218.2484a15.63,15.63,0,0,0-2.5968,2.0973c-.4994.6992-.6991.9988,0,2.5968s5.5556,12.0973,7.7278,15.8052a99.4013,99.4013,0,0,0,7.4532,10.3c1.3029,1.6114,2.4093,2.1811,3.0119,3.7141.3214.8177-.2029,1.3046-.2778,2.1286-.175,1.9251,18.7889,31.523,19.1884,32.0723s3.4457,3.4956,3.4457,3.4956,2.5468-1.9226,2.8465-2.7465-1.2235-4.5194-1.2235-4.5194l-12.1972-31.4855s-1.0487-1.5731-2.06-1.7229a29.2888,29.2888,0,0,0-4.794.5244l-1.1236-1.3483a2.2672,2.2672,0,0,1,.4494-1.2734,6.6015,6.6015,0,0,0,1.8727-2.6592c.4868-1.4232-.1873-4.0449-1.3484-5.9551a79.0391,79.0391,0,0,0-8.4893-9.8876c-2.6467-2.5468-8.14-7.2908-8.8889-8.09S520.8661,218.2484,520.8661,218.2484Z"
            fill="#212a37" stroke="#212a37" stroke-linecap="round" stroke-linejoin="round" stroke-width="0.2" />
        <path
            d="M599.6937,252.4735c-2.21-3.221-31.158-6.416-57.4487,1.3519-20.9032,6.1761-46.73,25.3151-44.5361,28.4607,3.3083,4.7441,15.243,2.6369,28.0524,2.9964,3.5932.1007,7.1158.68,10.8963,1.1425,2.5264-3.3378,8.9439-7.3721,17.0177-10.3586,10.3026-3.8108,19.677-4.5787,22.2029-2.0086a22.6813,22.6813,0,0,1,6.9116-6.2285C592.5886,262.4647,601.3788,254.93,599.6937,252.4735Z"
            fill="#2f3b52" stroke="#2f3b52" stroke-linecap="round" stroke-linejoin="round" stroke-width="0.2" />
        <path
            d="M553.6753,276.0664c-8.0738,2.9865-14.4913,7.0208-17.0177,10.3586a53.0622,53.0622,0,0,0,23.579-1.7151c9.3734-2.84,12.5568-6.8881,15.6416-10.6521C573.3523,271.4877,563.9779,272.2556,553.6753,276.0664Z"
            fill="#495168" stroke="#495168" stroke-linecap="round" stroke-linejoin="round" stroke-width="0.2" />
        <path
            d="M749.8027,166.071a7.42,7.42,0,0,1,2.3221-1.3858,46.3787,46.3787,0,0,1,5.4682.6929c1.2359.206,11.7977,2.4157,16.7041,3.6517s6.2546,1.1236,11.2359,3.0711,7.1535,3.7079,7.2659,3.9326a5.2567,5.2567,0,0,0,5.6554.0374c1.2734-.5992,1.5356-1.161,3.5206-.9363a7.42,7.42,0,0,1,3.7078,1.91l26.1049,7.7528s10.5992,5.3558,11.0486,5.7678.3,1.0112-.3371,1.2734a32.3241,32.3241,0,0,1-10.5243-.15c-4.3071-.8614-39.7-10.5243-39.7-10.5243a3.3034,3.3034,0,0,1-.5618-.8989c-.1872-.4869-.8614-.5618-1.161-.5618a4.3019,4.3019,0,0,0-2.8839.5992c-1.3483.8615-2.0974,1.76-3.3333,2.1349s-4.3446,1.3108-9.3633-1.1236-9.4007-5.4307-12.2846-7.1536S749.8027,166.071,749.8027,166.071Z"
            fill="#1e2638" stroke="#1e2638" stroke-linecap="round" stroke-linejoin="round" stroke-width="0.2" />
        <path
            d="M835.6968,182.68c-1.8039-3.4646-10.0409-11.5385-36.3315-3.7706-20.9032,6.1762-46.73,25.3151-44.5361,28.4608,3.3083,4.7441,15.243,2.6368,28.0524,2.9962a93.9264,93.9264,0,0,1,11.2822,1.4614c2.2474-3.2919,8.3044-7.2415,15.9943-10.086,7.776-2.8763,15.0239-3.81,18.84-2.7169a22.25,22.25,0,0,1,4.8264-6.1577A9.024,9.024,0,0,0,835.6968,182.68Z"
            fill="#2e384f" stroke="#2e384f" stroke-linecap="round" stroke-linejoin="round" stroke-width="0.2" />
        <path
            d="M810.1581,201.7422c-7.69,2.8445-13.7469,6.7941-15.9943,10.086,6.5182.9926,13.7929,1.5483,23.193-2.0338,7.8519-2.992,9.3491-6.7249,11.6409-10.7691C825.182,197.9317,817.9341,198.8659,810.1581,201.7422Z"
            fill="#444754" stroke="#444754" stroke-linecap="round" stroke-linejoin="round" stroke-width="0.2" />
        <path
            d="M712.2634,420.47a11.6623,11.6623,0,0,0,2.9092-.2617c.7514-.3036,7.201-6.3436,9.4518-8.2069s6.9091-7.2448,8.8083-9.207,33.474-34.3151,33.474-34.3151-.3077-1.7533.5944-2.0074a28.2558,28.2558,0,0,0,6.5152-1.98c2.955-1.4148,4.5094-1.6714,8.1052-6.0964s9.6812-13.8347,13.1247-18.7353,11.6373-17.3387,11.6373-17.3387-.38-.9384-3.0086.5-11.0248,10.193-15.2229,14.5326-18.5933,18.8689-20.0905,20.98-4.152,6.5952-5.3128,8.1035-3.7934,1.9318-4.8439,2.7629a33.4183,33.4183,0,0,0-4.0112,4.0381c-1.4611,1.6974-24.8068,27.5774-24.8068,27.5774s-1.6121,1.5852-2.4735,2.6787S712.2634,420.47,712.2634,420.47Z"
            fill="#222636" stroke="#222636" stroke-linecap="round" stroke-linejoin="round" stroke-width="0.2" />
        <path
            d="M798.2611,374.547c-1.8039-3.4646-10.0408-11.5385-36.3314-3.7706-20.9032,6.1762-46.73,25.3151-44.5361,28.4607,3.3083,4.7441,15.243,2.6369,28.0524,2.9964a103.6971,103.6971,0,0,1,11.86,1.5436c1.0221-2.8864,7.12-7.0045,15.1319-9.9682,8.6644-3.2049,16.512-3.93,18.5309-1.8592a24.2457,24.2457,0,0,1,5.42-7.2154A9.024,9.024,0,0,0,798.2611,374.547Z"
            fill="#1e2c3f" stroke="#1e2c3f" stroke-linecap="round" stroke-linejoin="round" stroke-width="0.2" />
        <path
            d="M772.4376,393.8089c-8.012,2.9637-14.11,7.0818-15.1319,9.9682,6.372.9358,13.49,1.3615,22.6155-2.116,7.1625-2.7295,9.0342-6.0754,11.0473-9.7114C788.95,389.8784,781.102,390.604,772.4376,393.8089Z"
            fill="#414a5a" stroke="#414a5a" stroke-linecap="round" stroke-linejoin="round" stroke-width="0.2" />
        <ellipse cx="558.0791" cy="334.3293" rx="0.5554" ry="0.969"
            transform="translate(-51.8331 107.9768) rotate(-10.5636)" fill="#9e9093" />
        <path
            d="M557.35,375.7469c-.5078,2.8906-.808,7.257-.3593,7.3121s2.5289-7.0623,3.4231-10.9723c.674-2.947,4.6644-22.2981,6.635-34.1712-2.0659,5.9473-4.4694,13.5475-5.2771,16.6265C560.4005,359.77,557.8581,372.8562,557.35,375.7469Z"
            fill="#b9b9b9" stroke="#b9b9b9" stroke-linecap="round" stroke-linejoin="round" stroke-width="0.2" />
        <path
            d="M573.5706,298.93c2.4344-6.0689,4.8365-12.2794,5.1981-13.324.1966-.5675,1.14-3.6235,1.809-5.7463-.4916-.6-.9309-1.0854-.9309-1.0854a40.62,40.62,0,0,1-1.2794,4.8295c-.88,2.6617-3.4117,7.8323-5.296,12.0619s-4.25,9.5774-5.0763,14.6613c-.447,2.7491-.5258,5.8572-.7818,8.82,1.45-2.3028,3.5968-6.1,4.15-8.5941C572.1377,307.0644,572.5935,301.3661,573.5706,298.93Z"
            fill="#9a9a9a" stroke="#9a9a9a" stroke-linecap="round" stroke-linejoin="round" stroke-width="0.2" />
        <path
            d="M581.9386,281.98a6.6075,6.6075,0,0,0-1.36-2.1249c-.67,2.1228-1.6125,5.1788-1.8091,5.7463-.3616,1.0446-2.7637,7.2551-5.1981,13.324-.9771,2.4359-1.4329,8.1342-2.2071,11.6232-.5533,2.4943-2.7,6.2913-4.15,8.5941-.2828,3.274-.7832,6.37-2.2613,8.59-.4043.6071-1.3691,2.3665-1.3691,2.3665-.793.1478-1.2268,1.39-.9687,2.7734s1.11,2.3857,1.9033,2.2378c.58.6671.8622,7.0275-.1425,10.8249.852-2.6526,1.7934-5.4864,2.6736-8.02a3.463,3.463,0,0,1,3.0936-2.3762c1.41-.2629,2.1806-2.47,1.7218-4.93a7.4447,7.4447,0,0,0-.5636-1.7817s3.7352-2.92,4.8609-4.0091c1.97-1.9063,2.0746-4.49,2.4443-7.3131s1.857-13.2,1.972-15.053.5441-6.5485.7011-8.794S582.0046,282.749,581.9386,281.98Z"
            fill="#919191" stroke="#919191" stroke-linecap="round" stroke-linejoin="round" stroke-width="0.2" />
        <path
            d="M563.5833,330.0994a2.9312,2.9312,0,0,0-2.6889,3.4169,2.9874,2.9874,0,0,0,3.6235,1.5944c.7931-.1479,1.2268-1.39.9687-2.7735S564.3764,329.9515,563.5833,330.0994Z"
            fill="#3e3d4c" />
        <path
            d="M558.2567,335.2819l3.3625-.9709c.3015-.0563.4664-.5283.3683-1.0545s-.4221-.907-.7236-.8507l-3.3625.9709"
            fill="#9e9093" />
        <path
            d="M434.9525,305.3807c-32.5664,9.4711-53.0567,14.572-53.6838,13.1431s9.1547-8.5557,51.0108-20.7286c.3541.07,1.2878.79,2.25,2.87A6.2738,6.2738,0,0,1,434.9525,305.3807Z"
            fill="#e0e0d9" stroke="#e0e0d9" stroke-linecap="round" stroke-linejoin="round" stroke-width="0.2" />

    </g>

    <animate href="#UAS-mainframe" attributeName="opacity" from="0" to="0" dur="0.1s" begin="0" fill="freeze" />
    <animateMotion href="#UAS-mainframe" dur="1s" begin="sky.end" fill="freeze" path="M0,0,-157.5259,640" />
    <animate href="#UAS-mainframe" attributeName="opacity" from="0" to="1" dur="0.1s" begin="sky.end+0.2s"
        fill="freeze" />
    <animateMotion href="#UAS-mainframe" dur="1s" begin="sky.end+0.2s" fill="freeze" path="M-157.5259,640,0,0"
        id="mainframe" />

</svg>